<?xml version="1.0" standalone="no"?>
<!DOCTYPE svg PUBLIC "-//W3C//DTD SVG 20010904//EN"
 "http://www.w3.org/TR/2001/REC-SVG-20010904/DTD/svg10.dtd">
<svg version="1.0" xmlns="http://www.w3.org/2000/svg"
 width="792.000000pt" height="792.000000pt" viewBox="0 0 792.000000 792.000000"
 preserveAspectRatio="xMidYMid meet">
<metadata>
Created by potrace 1.14, written by Peter Selinger 2001-2017
</metadata>
<g transform="translate(0.000000,792.000000) scale(0.100000,-0.100000)"
fill="#000000" stroke="none">
<path d="M3720 6229 c-36 -5 -83 -10 -105 -13 -42 -4 -132 -20 -240 -42 -67
-13 -276 -78 -368 -115 -101 -40 -310 -140 -304 -145 4 -4 182 -13 365 -18 73
-2 136 -6 139 -9 2 -3 -29 -5 -71 -4 -45 1 -76 -2 -76 -8 0 -5 -4 -4 -9 4 -5
7 -11 9 -14 4 -7 -12 -46 -11 -66 1 -9 6 -12 5 -8 -1 4 -7 -22 -11 -76 -13
-45 -1 -104 -3 -132 -5 -27 -1 -74 -3 -102 -4 -47 -1 -62 -8 -149 -66 -212
-144 -427 -340 -569 -520 -22 -27 -44 -53 -50 -57 -12 -9 -5 -10 92 -12 40 -1
75 -5 78 -8 4 -4 18 -4 32 -2 15 3 30 -1 34 -8 7 -10 9 -10 9 0 0 6 5 12 11
12 5 0 7 -6 3 -12 -6 -10 -5 -10 7 -1 12 10 18 10 27 1 7 -7 12 -8 12 -2 0 5
9 10 20 10 11 0 20 -3 20 -7 0 -3 11 -4 25 -1 14 2 25 0 25 -4 -1 -20 -17 -31
-45 -30 -16 1 -36 -3 -44 -9 -12 -8 -13 -6 -8 9 6 14 5 16 -5 8 -12 -9 -49
-16 -73 -13 -5 1 -3 6 5 11 11 7 11 10 2 10 -8 0 -10 5 -6 13 4 7 3 9 -2 4 -5
-5 -10 -13 -10 -18 -1 -5 -2 -13 -3 -19 0 -5 -6 -10 -12 -10 -5 0 -8 4 -5 8 2
4 0 14 -5 22 -8 12 -9 11 -7 -5 3 -18 -3 -20 -57 -22 -51 -2 -130 -8 -171 -12
-30 -3 -207 -312 -280 -488 -68 -165 -133 -376 -158 -518 -3 -16 -8 -41 -11
-55 -3 -14 -8 -52 -11 -85 -3 -33 -9 -76 -13 -95 -4 -19 -8 -113 -10 -207 l-3
-173 34 -1 c18 -1 53 -2 78 -2 25 0 48 -5 52 -11 5 -7 8 -5 8 4 1 12 3 11 11
-2 5 -10 15 -18 22 -18 7 0 6 4 -3 10 -12 8 -12 10 5 11 11 1 36 0 55 -1 19
-2 55 -4 80 -5 59 -4 59 -3 30 -21 -25 -15 -25 -15 -1 -8 18 5 22 3 16 -7 -5
-8 -4 -11 1 -6 9 8 10 12 13 38 1 8 6 8 16 -1 12 -10 15 -10 15 1 0 12 2 12 9
0 7 -11 9 -11 14 0 4 10 6 9 6 -3 1 -10 6 -18 12 -18 5 0 7 5 4 10 -9 14 28
12 44 -2 9 -8 11 -8 8 -2 -5 8 8 12 43 11 28 0 50 -4 50 -9 0 -4 5 -8 11 -8 5
0 8 4 5 9 -3 4 7 6 22 4 15 -2 64 -5 110 -6 77 -2 99 -8 70 -21 -7 -2 -3 -4 9
-2 12 1 26 6 30 11 5 4 2 5 -4 1 -7 -4 -13 -2 -13 3 0 15 11 14 31 -5 13 -12
19 -12 25 -3 4 8 3 10 -4 5 -7 -4 -12 -2 -12 4 0 6 10 8 27 4 15 -4 68 -8 118
-8 49 -1 95 -5 102 -9 6 -4 14 -3 18 3 4 6 11 7 17 4 6 -4 52 -7 103 -8 52 0
97 -5 102 -10 5 -5 1 -7 -8 -4 -9 4 -22 2 -30 -2 -7 -5 -18 -5 -25 1 -8 7 -14
6 -19 -1 -5 -8 -11 -8 -21 1 -10 8 -14 8 -14 0 0 -13 -22 -10 -32 4 -5 6 -8 5
-8 -2 0 -9 -16 -13 -45 -13 -29 0 -45 4 -45 13 0 9 -2 9 -8 1 -8 -13 -112 -23
-112 -11 0 4 5 7 12 7 6 0 8 3 4 7 -4 5 -13 1 -19 -7 -9 -11 -35 -16 -91 -17
-44 -1 -85 -4 -93 -7 -8 -3 -11 -1 -8 4 3 6 1 10 -5 10 -6 0 -8 5 -5 10 3 6 1
10 -5 10 -6 0 -9 -8 -6 -17 5 -16 -4 -18 -90 -20 -73 -2 -93 0 -88 10 6 9 5 9
-7 0 -8 -6 -29 -10 -47 -9 -17 1 -32 -1 -32 -6 0 -4 -5 -8 -11 -8 -5 0 -7 6
-3 13 6 9 4 9 -7 0 -7 -7 -20 -13 -28 -13 -11 0 -10 4 5 16 18 14 17 14 -6 2
-31 -16 -83 -18 -92 -4 -5 8 -8 7 -8 -1 0 -7 -6 -10 -14 -7 -8 3 -17 1 -20 -5
-5 -7 -15 -7 -31 -1 -14 5 -25 6 -25 2 0 -4 -52 -8 -116 -9 -69 -2 -113 1
-109 6 3 5 1 13 -5 16 -6 4 -10 3 -9 -2 4 -22 -3 -30 -23 -29 -14 1 -23 -5
-23 -14 0 -8 -4 -18 -10 -22 -6 -5 -6 -8 1 -8 6 0 14 -27 18 -62 3 -34 8 -63
10 -65 2 -2 32 -6 67 -8 35 -2 64 -4 64 -5 0 -1 46 -2 102 -4 130 -3 144 -13
19 -13 -51 0 -99 -3 -105 -7 -6 -4 -11 -2 -11 5 0 8 -5 7 -17 -2 -14 -12 -16
-12 -8 0 6 11 5 12 -6 5 -8 -5 -27 -9 -44 -10 -58 -3 -57 -2 -50 -41 8 -45 13
-68 15 -68 1 0 3 -7 5 -16 1 -9 6 -26 10 -38 4 -14 2 -21 -7 -21 -9 0 -9 -3 2
-10 8 -5 15 -13 16 -17 0 -4 5 -25 12 -46 6 -21 8 -46 5 -54 -4 -11 -2 -14 5
-9 11 6 15 -5 11 -30 0 -4 4 -10 9 -13 6 -4 12 -18 15 -31 2 -14 12 -45 22
-70 11 -25 19 -47 19 -50 0 -3 12 -30 27 -60 19 -38 23 -57 15 -62 -7 -5 -4
-8 8 -8 12 0 16 -5 13 -14 -3 -8 -1 -16 4 -18 5 -2 11 -13 12 -25 0 -12 5 -21
10 -20 5 1 14 -11 20 -28 6 -16 16 -36 24 -43 24 -24 57 -96 41 -90 -9 4 -14
-1 -14 -13 0 -14 3 -15 14 -6 20 16 47 -20 30 -40 -8 -10 -7 -12 4 -8 23 9 62
-47 45 -64 -9 -10 -8 -11 5 -6 22 9 42 -26 25 -45 -9 -10 -9 -11 1 -6 18 10
44 -14 37 -33 -3 -8 -3 -12 1 -9 8 8 37 -19 53 -49 10 -20 9 -23 -6 -24 -28
-1 -395 -60 -463 -74 -14 -3 -63 -12 -110 -20 -122 -22 -123 -22 -334 -65
-105 -22 -204 -44 -221 -50 l-30 -10 35 5 c19 2 62 7 95 10 33 3 74 8 90 10
17 2 62 6 100 10 39 3 88 8 110 10 22 2 76 7 120 11 44 3 96 7 115 9 19 2 71
7 115 10 44 3 98 8 120 10 22 2 83 6 135 10 52 3 106 8 118 11 13 3 31 -1 40
-8 12 -10 14 -10 8 0 -5 8 -1 11 16 8 13 -2 29 1 36 6 8 7 12 7 12 0 0 -6 8
-9 18 -7 9 2 17 4 17 5 0 1 12 4 28 6 18 3 27 0 27 -8 0 -9 3 -9 11 2 8 11 12
12 16 3 2 -7 9 -13 14 -13 6 0 7 5 3 11 -5 8 6 10 35 7 22 -2 41 -1 41 2 0 3
33 6 73 7 39 1 72 2 72 3 0 1 19 3 43 5 23 2 42 0 42 -5 0 -6 5 -10 11 -10 5
0 7 4 4 10 -4 6 13 10 45 10 32 0 49 -4 45 -10 -3 -5 -1 -10 4 -10 6 0 11 7
11 16 0 15 2 15 24 0 18 -11 27 -13 32 -4 4 7 3 8 -4 4 -7 -4 -12 -3 -12 1 0
5 17 10 37 10 29 1 33 -1 20 -9 -10 -5 -14 -14 -11 -20 5 -7 1 -9 -9 -5 -10 3
-17 3 -17 -2 0 -5 9 -11 19 -14 14 -3 19 0 16 13 -4 21 26 37 78 42 28 3 37 0
37 -11 0 -11 4 -10 15 5 9 12 14 14 15 6 0 -8 5 -10 13 -5 18 11 38 13 31 2
-3 -5 0 -9 5 -9 6 0 11 4 11 8 0 4 9 8 20 9 18 2 24 -7 22 -29 -1 -3 6 -12 15
-20 14 -11 16 -11 8 2 -26 41 -18 46 75 48 72 1 88 -1 84 -12 -3 -8 -1 -17 5
-21 7 -4 8 0 4 11 -4 12 -3 15 5 10 8 -5 10 -1 5 11 -6 16 -5 16 10 4 12 -9
17 -10 17 -2 0 7 4 10 9 6 6 -3 8 -14 6 -25 -2 -11 1 -20 6 -20 5 0 9 6 8 13
-4 30 4 33 115 33 62 1 118 4 124 8 6 3 15 -2 21 -11 7 -12 10 -13 11 -4 0 8
6 11 16 7 9 -3 21 -3 27 1 15 9 67 11 61 2 -2 -4 2 -9 8 -12 9 -3 7 -10 -7
-21 -20 -17 -20 -17 3 -6 17 8 21 17 17 31 -7 20 -6 20 22 3 19 -13 24 -14 16
-4 -10 13 -5 15 28 16 21 1 39 -3 39 -7 0 -5 5 -9 11 -9 5 0 8 3 6 8 -3 4 33
7 79 7 46 1 84 -3 84 -8 0 -4 6 -5 13 0 17 11 67 12 67 1 0 -5 6 -6 13 -1 16
11 187 10 187 -1 0 -5 8 -2 17 5 15 12 16 12 10 -6 -6 -17 -5 -18 5 -5 15 18
48 25 48 10 0 -5 5 -10 11 -10 5 0 8 3 6 8 -3 4 24 7 59 7 36 0 64 -4 64 -10
0 -5 5 -3 11 5 9 12 10 11 6 -7 -3 -13 -1 -23 4 -23 5 0 9 6 9 14 0 8 5 18 12
22 7 4 8 3 4 -4 -9 -15 -1 -15 25 -2 20 11 26 1 8 -17 -7 -7 -6 -12 5 -16 10
-4 13 -1 10 8 -8 19 29 38 44 23 9 -9 12 -9 12 1 0 7 5 9 10 6 8 -5 7 -12 -2
-23 -10 -14 -9 -14 8 1 18 15 36 17 122 14 66 -3 107 -9 121 -19 11 -8 19 -18
16 -21 -3 -4 -2 -4 3 -1 4 3 8 10 8 15 1 5 2 15 3 22 1 6 9 0 17 -15 8 -16 17
-28 20 -28 2 0 0 9 -6 19 -5 11 -10 21 -10 23 0 2 22 1 50 0 34 -3 48 -8 44
-15 -4 -8 -2 -7 7 1 16 14 73 17 64 2 -3 -5 -1 -10 4 -10 6 0 11 4 11 9 0 6 9
9 20 8 11 -1 20 -5 20 -9 0 -4 5 -8 11 -8 5 0 8 4 5 9 -3 5 7 8 23 7 16 0 27
-4 25 -8 -7 -10 -1 -10 30 2 16 6 27 6 31 -1 4 -5 11 -7 16 -4 5 4 9 0 9 -7 0
-8 3 -9 8 -3 10 14 46 19 37 5 -4 -7 1 -6 14 2 18 11 23 11 31 -2 9 -13 10
-13 11 0 0 10 3 8 9 -5 6 -15 9 -16 9 -4 1 9 8 16 16 16 18 0 20 -14 3 -20
-10 -3 -10 -8 1 -18 8 -8 11 -9 8 -4 -3 6 1 19 9 30 8 10 14 14 14 7 0 -6 7
-9 15 -6 8 4 23 0 32 -7 13 -10 15 -11 9 -1 -6 10 1 12 28 10 20 -1 36 -6 36
-11 0 -4 6 -5 13 0 19 12 66 9 72 -4 2 -7 2 -20 -1 -28 -4 -8 -2 -15 4 -15 6
0 9 11 7 25 -2 23 1 25 34 25 21 0 43 -6 50 -13 11 -10 12 -9 6 2 -6 11 -4 13
9 8 10 -4 41 -7 70 -7 45 0 55 -3 65 -22 10 -22 11 -22 6 -2 -5 21 -3 21 57
17 35 -2 71 -5 80 -4 11 0 15 -7 13 -19 -2 -11 0 -22 4 -25 5 -2 8 5 7 17 -1
20 4 22 44 21 60 -2 272 -17 390 -29 86 -8 130 -11 225 -18 44 -4 91 -8 105
-11 14 -2 61 -7 105 -10 44 -3 94 -8 110 -10 17 -3 55 -7 85 -10 30 -3 70 -7
89 -10 60 -8 25 6 -66 26 -209 47 -607 122 -758 144 -22 4 -51 8 -65 11 -14 3
-38 7 -55 10 -16 2 -46 7 -65 11 -19 3 -39 5 -44 4 -5 -1 -17 6 -28 16 -18 16
-19 16 -12 -3 7 -16 5 -17 -8 -7 -8 7 -19 9 -23 5 -4 -4 2 8 15 26 13 17 28
32 32 32 5 0 6 5 2 12 -5 7 -2 9 9 5 10 -4 14 -2 11 7 -3 7 11 32 29 57 19 24
39 54 46 67 8 15 18 21 28 18 13 -5 14 -4 3 9 -9 11 -9 15 -1 15 7 0 10 4 7 8
-3 5 3 18 14 29 10 12 16 24 13 27 -4 3 -1 6 6 6 7 0 9 5 5 12 -5 7 -2 9 7 6
10 -4 14 3 16 20 0 14 7 31 15 36 7 6 14 18 16 26 2 8 9 18 15 22 7 4 9 8 4 8
-4 0 0 14 8 30 9 17 20 28 24 26 5 -3 8 2 8 12 0 41 4 52 17 52 7 0 20 8 27
18 11 14 11 15 -1 5 -22 -20 -31 -15 -18 12 6 13 14 23 17 21 3 -2 7 8 8 22 3
34 48 144 56 136 3 -3 3 3 0 15 -3 12 -1 21 4 21 5 0 10 8 11 18 1 9 4 26 6
37 2 11 5 26 5 33 1 7 4 11 9 9 4 -3 8 11 10 31 1 21 6 38 11 40 5 2 6 12 3
24 -3 12 -1 19 4 16 5 -3 10 10 11 31 2 33 9 76 13 76 1 0 3 16 6 34 2 19 10
39 17 43 9 6 9 8 -1 8 -7 0 -11 4 -8 9 3 5 9 40 12 77 4 38 11 72 18 76 8 6 8
8 -1 8 -7 0 -10 10 -6 28 10 54 15 146 11 215 -2 26 0 47 5 47 4 0 5 5 1 12
-4 7 -9 48 -11 93 -2 44 -5 90 -6 103 -1 16 -7 22 -26 23 -15 1 -51 2 -81 4
-30 2 -88 3 -128 4 -40 1 -71 5 -68 9 3 5 -1 9 -9 9 -8 0 -12 -4 -9 -9 3 -4 1
-8 -5 -8 -5 0 -12 6 -14 13 -4 10 -6 10 -6 0 -1 -7 -6 -13 -12 -13 -5 0 -7 5
-3 12 5 7 3 8 -7 2 -21 -12 -59 -13 -59 0 0 6 -5 4 -10 -4 -6 -10 -10 -11 -10
-3 0 9 -7 10 -23 4 -13 -5 -28 -6 -34 -3 -6 4 -31 7 -55 7 -23 -1 -46 4 -50
10 -5 6 -8 6 -8 -2 0 -7 -7 -13 -15 -13 -8 0 -15 6 -15 13 0 7 -3 8 -8 2 -10
-14 -32 -17 -32 -5 0 13 -7 12 135 16 66 1 139 5 163 8 29 4 42 2 42 -7 0 -7
3 -8 8 -2 11 16 46 19 36 3 -6 -10 -4 -10 9 1 14 11 20 11 34 0 11 -10 14 -10
9 -1 -5 8 -1 12 11 13 10 0 62 2 116 4 54 2 101 5 103 8 11 10 0 100 -17 144
-6 16 -13 20 -30 16 -16 -5 -20 -3 -14 6 5 10 3 11 -11 4 -11 -5 -30 -8 -44
-7 -14 1 -64 4 -112 5 -47 2 -85 6 -83 9 2 3 -29 3 -68 2 -60 -3 -73 -1 -85
15 -13 16 -14 16 -9 1 4 -12 1 -18 -9 -18 -9 0 -12 5 -8 13 6 9 4 9 -8 -1 -17
-14 -39 -13 -50 3 -5 6 -8 4 -8 -4 0 -11 -4 -9 -14 5 -8 10 -18 16 -22 11 -4
-4 -2 -7 4 -7 7 0 12 -4 12 -9 0 -13 -52 -4 -61 11 -6 9 -9 8 -9 -7 -1 -20 -1
-20 -15 -1 -8 11 -15 15 -15 8 0 -13 -157 -11 -178 2 -7 4 -12 1 -12 -6 0 -9
-3 -9 -10 2 -5 8 -10 10 -10 5 0 -14 -80 -6 -99 9 -8 6 -12 6 -9 1 4 -6 -4
-12 -18 -13 -17 -1 -23 2 -18 10 5 7 3 8 -7 3 -7 -5 -35 -9 -61 -10 -41 0 -48
3 -49 20 0 15 -2 17 -7 5 -4 -9 -14 -15 -22 -15 -8 0 -18 -4 -22 -10 -5 -6 -8
-6 -8 2 0 7 -13 9 -40 6 -31 -4 -40 -2 -40 10 0 18 31 28 53 16 10 -6 18 -5
22 1 5 8 12 7 23 -2 9 -7 13 -8 10 -3 -5 7 16 11 60 10 37 -1 75 3 84 7 10 5
20 4 24 -3 4 -8 9 -7 15 2 7 12 9 12 9 0 0 -9 4 -10 13 -4 6 5 75 11 152 12
77 1 153 4 168 7 21 3 27 1 21 -8 -11 -16 -15 -42 -6 -33 4 4 7 10 7 13 0 13
16 32 27 32 5 0 7 -8 4 -17 -5 -16 -4 -16 8 1 8 10 22 16 30 13 8 -3 17 -3 20
1 10 9 46 10 46 0 0 -5 5 -6 12 -2 7 4 31 8 55 10 32 1 43 -2 43 -13 0 -8 -5
-11 -12 -7 -7 4 -8 3 -4 -5 9 -14 26 -5 26 15 0 8 9 14 19 14 14 0 19 -6 16
-19 -2 -11 4 -26 13 -33 15 -11 15 -11 6 2 -25 36 -12 45 74 50 46 3 94 2 108
-2 14 -3 22 -2 18 3 -3 5 13 9 35 9 42 0 46 7 28 50 -4 8 -8 24 -10 35 -2 11
-6 27 -9 35 -3 8 -13 40 -23 70 -186 571 -593 1084 -1118 1408 -38 23 -70 42
-72 42 -2 0 -30 15 -64 34 -71 40 -257 126 -274 126 -7 0 -24 7 -39 14 -27 14
-179 64 -215 71 -10 2 -18 4 -18 5 0 6 -219 50 -330 66 -121 18 -477 25 -585
13z m-1414 -1045 c-5 -13 -3 -14 6 -7 18 15 70 14 61 -1 -5 -8 -3 -8 8 0 8 6
37 10 64 8 28 -1 58 -3 68 -3 9 -1 17 -5 17 -10 0 -5 -25 -8 -55 -7 -30 1 -55
-2 -55 -6 0 -5 -5 -6 -10 -3 -6 4 -8 12 -4 18 3 7 0 5 -8 -3 -13 -15 -61 -23
-52 -8 3 4 0 8 -5 8 -6 0 -11 -4 -11 -8 0 -4 -11 -9 -25 -10 -28 -2 -29 1 -15
29 13 23 25 25 16 3z m305 -6 c21 0 40 -2 43 -6 2 -4 -23 -7 -55 -8 -32 -1
-59 2 -59 6 0 12 12 20 22 14 6 -4 27 -6 49 -6z m86 -4 c-3 -3 -12 -4 -19 -1
-8 3 -5 6 6 6 11 1 17 -2 13 -5z m2343 -979 c0 -2 -9 -3 -19 -2 -11 0 -18 5
-15 9 4 6 34 0 34 -7z m200 2 c0 -8 -7 -14 -15 -14 -8 0 -15 4 -15 9 0 5 -9 4
-20 -2 -15 -8 -20 -8 -21 2 0 10 -2 10 -6 -1 -5 -11 -7 -11 -14 0 -5 8 -9 9
-9 4 0 -6 -19 -9 -45 -7 -77 7 -50 17 50 19 73 2 95 0 95 -10z m-257 -4 c-7
-2 -19 -2 -25 0 -7 3 -2 5 12 5 14 0 19 -2 13 -5z m865 -252 c6 -1 12 -6 12
-11 0 -7 -6 -8 -16 -2 -9 5 -26 7 -37 4 -13 -3 -18 -1 -14 6 4 5 15 9 25 7 9
-2 23 -4 30 -4z m-71 -7 c-3 -3 -12 -4 -19 -1 -8 3 -5 6 6 6 11 1 17 -2 13 -5z
m-2992 -484 c17 -8 16 -8 -7 -7 -16 1 -28 5 -28 9 0 10 9 9 35 -2z m40 0 c3
-5 1 -10 -4 -10 -6 0 -11 5 -11 10 0 6 2 10 4 10 3 0 8 -4 11 -10z m1950
-1520 c3 -5 2 -10 -4 -10 -5 0 -13 5 -16 10 -3 6 -2 10 4 10 5 0 13 -4 16 -10z"/>
<path d="M2029 5183 c-13 -16 -12 -17 4 -4 16 13 21 21 13 21 -2 0 -10 -8 -17
-17z"/>
<path d="M2217 5169 c7 -7 15 -10 18 -7 3 3 -2 9 -12 12 -14 6 -15 5 -6 -5z"/>
<path d="M6056 4223 c-6 -14 -5 -15 5 -6 7 7 10 15 7 18 -3 3 -9 -2 -12 -12z"/>
<path d="M6317 4229 c7 -7 15 -10 18 -7 3 3 -2 9 -12 12 -14 6 -15 5 -6 -5z"/>
<path d="M5948 4208 c-10 -10 -14 -18 -9 -18 10 0 36 29 30 34 -2 1 -12 -6
-21 -16z"/>
<path d="M6110 4221 c0 -10 29 -36 34 -30 1 2 -6 12 -16 22 -10 9 -18 13 -18
8z"/>
<path d="M6387 4212 c4 -9 2 -13 -4 -9 -5 3 -10 0 -10 -8 0 -10 4 -12 12 -5 7
5 15 7 19 3 4 -4 4 1 0 11 -6 15 -4 17 7 11 8 -5 11 -4 6 0 -14 16 -36 14 -30
-3z"/>
<path d="M5590 4205 c-7 -9 -11 -17 -9 -20 3 -2 10 5 17 15 14 24 10 26 -8 5z"/>
<path d="M5700 4211 c0 -6 4 -13 10 -16 6 -3 7 1 4 9 -7 18 -14 21 -14 7z"/>
<path d="M5819 4218 c-6 -22 -5 -39 3 -45 7 -3 8 -1 4 5 -4 7 -3 12 3 12 5 0
12 -6 14 -12 4 -10 6 -10 6 0 1 7 -6 15 -14 18 -8 4 -12 10 -9 15 3 5 3 9 0 9
-3 0 -6 -1 -7 -2z"/>
<path d="M5870 4211 c0 -7 -5 -9 -12 -5 -7 5 -8 3 -3 -5 5 -9 10 -10 18 -2 6
6 8 14 4 18 -4 3 -7 1 -7 -6z"/>
<path d="M6282 4200 c7 -10 14 -18 15 -16 6 6 -9 36 -18 36 -5 0 -4 -9 3 -20z"/>
<path d="M5460 4206 c0 -2 8 -10 18 -17 15 -13 16 -12 3 4 -13 16 -21 21 -21
13z"/>
<path d="M5500 4206 c0 -2 7 -7 16 -10 8 -3 12 -2 9 4 -6 10 -25 14 -25 6z"/>
<path d="M5762 4197 c10 -8 14 -18 10 -22 -4 -5 -1 -5 6 -1 17 10 15 14 -10
26 -21 10 -21 10 -6 -3z"/>
<path d="M6010 4198 c0 -4 4 -8 9 -8 6 0 12 4 15 8 3 5 -1 9 -9 9 -8 0 -15 -4
-15 -9z"/>
<path d="M6065 4199 c-3 -4 2 -6 10 -5 21 3 28 13 10 13 -9 0 -18 -4 -20 -8z"/>
<path d="M5628 4193 c7 -3 16 -2 19 1 4 3 -2 6 -13 5 -11 0 -14 -3 -6 -6z"/>
<path d="M6230 4196 c0 -2 9 -6 20 -9 11 -3 18 -1 14 4 -5 9 -34 13 -34 5z"/>
<path d="M5730 4179 c0 -5 5 -7 10 -4 6 3 10 8 10 11 0 2 -4 4 -10 4 -5 0 -10
-5 -10 -11z"/>
<path d="M6113 4175 c0 -8 4 -12 9 -9 5 3 6 10 3 15 -9 13 -12 11 -12 -6z"/>
<path d="M6350 4185 c0 -5 5 -17 10 -25 5 -8 10 -10 10 -5 0 6 -5 17 -10 25
-5 8 -10 11 -10 5z"/>
<path d="M6228 4173 c7 -3 16 -2 19 1 4 3 -2 6 -13 5 -11 0 -14 -3 -6 -6z"/>
<path d="M6410 4159 c0 -5 5 -7 10 -4 6 3 10 8 10 11 0 2 -4 4 -10 4 -5 0 -10
-5 -10 -11z"/>
<path d="M6439 3948 c-5 -18 -6 -38 -1 -34 7 8 12 36 6 36 -2 0 -4 -1 -5 -2z"/>
<path d="M1370 3481 c0 -6 4 -13 10 -16 6 -3 7 1 4 9 -7 18 -14 21 -14 7z"/>
<path d="M1475 3480 c3 -6 1 -10 -6 -10 -7 0 -10 -3 -6 -6 3 -3 13 -2 22 4 16
8 16 9 1 15 -10 4 -15 3 -11 -3z"/>
<path d="M1570 3480 c0 -5 5 -10 10 -10 6 0 10 5 10 10 0 6 -4 10 -10 10 -5 0
-10 -4 -10 -10z"/>
<path d="M1610 3486 c0 -2 7 -7 16 -10 8 -3 12 -2 9 4 -6 10 -25 14 -25 6z"/>
<path d="M1676 3475 c-9 -26 -7 -32 5 -12 6 10 9 21 6 23 -2 3 -7 -2 -11 -11z"/>
<path d="M1514 3440 c0 -16 3 -30 6 -30 4 0 7 14 7 30 0 17 -3 30 -7 30 -3 0
-6 -13 -6 -30z"/>
<path d="M1613 3463 c4 -3 -1 -12 -11 -20 -15 -13 -15 -13 6 -3 19 9 23 30 5
30 -4 0 -3 -3 0 -7z"/>
<path d="M1751 3447 c-13 -21 -12 -21 5 -5 10 10 16 20 13 22 -3 3 -11 -5 -18
-17z"/>
<path d="M1853 3463 c4 -3 -1 -12 -11 -20 -15 -13 -15 -13 6 -3 19 9 23 30 5
30 -4 0 -3 -3 0 -7z"/>
<path d="M1925 3460 c-16 -7 -17 -9 -3 -9 9 -1 20 4 23 9 7 11 7 11 -20 0z"/>
<path d="M1561 3444 c0 -11 3 -14 6 -6 3 7 2 16 -1 19 -3 4 -6 -2 -5 -13z"/>
<path d="M1786 3444 c-14 -14 -14 -34 0 -34 3 0 2 5 -2 12 -5 7 -2 9 7 6 10
-4 15 1 15 13 0 23 -1 23 -20 3z"/>
<path d="M1946 3445 c-11 -8 -16 -15 -10 -15 5 0 18 7 28 15 11 8 16 15 10 15
-5 0 -18 -7 -28 -15z"/>
<path d="M2039 3458 c-6 -21 -5 -37 2 -32 5 3 7 9 4 14 -3 4 1 11 7 13 10 4
10 6 1 6 -7 1 -13 0 -14 -1z"/>
<path d="M2075 3450 c-3 -6 1 -7 9 -4 18 7 21 14 7 14 -6 0 -13 -4 -16 -10z"/>
<path d="M2118 3453 c7 -3 16 -2 19 1 4 3 -2 6 -13 5 -11 0 -14 -3 -6 -6z"/>
<path d="M1373 3431 c0 -11 5 -18 9 -15 4 3 5 11 1 19 -7 21 -12 19 -10 -4z"/>
<path d="M1455 3440 c3 -5 8 -10 11 -10 2 0 4 5 4 10 0 6 -5 10 -11 10 -5 0
-7 -4 -4 -10z"/>
<path d="M1651 3434 c0 -11 3 -14 6 -6 3 7 2 16 -1 19 -3 4 -6 -2 -5 -13z"/>
<path d="M1876 3442 c-3 -5 1 -9 9 -9 8 0 12 4 9 9 -3 4 -7 8 -9 8 -2 0 -6 -4
-9 -8z"/>
<path d="M2260 3440 c-9 -6 -10 -10 -3 -10 6 0 15 5 18 10 8 12 4 12 -15 0z"/>
<path d="M2295 3440 c3 -5 8 -10 11 -10 2 0 4 5 4 10 0 6 -5 10 -11 10 -5 0
-7 -4 -4 -10z"/>
<path d="M1430 3436 c0 -2 8 -10 18 -17 15 -13 16 -12 3 4 -13 16 -21 21 -21
13z"/>
<path d="M1997 3429 c7 -7 15 -10 18 -7 3 3 -2 9 -12 12 -14 6 -15 5 -6 -5z"/>
<path d="M6473 2755 c0 -8 4 -12 9 -9 5 3 6 10 3 15 -9 13 -12 11 -12 -6z"/>
<path d="M1490 2705 c0 -5 5 -17 10 -25 5 -8 10 -10 10 -5 0 6 -5 17 -10 25
-5 8 -10 11 -10 5z"/>
<path d="M6415 2669 c-4 -6 -5 -12 -2 -15 2 -3 7 2 10 11 7 17 1 20 -8 4z"/>
<path d="M1555 2480 c-3 -5 -1 -10 4 -10 6 0 11 5 11 10 0 6 -2 10 -4 10 -3 0
-8 -4 -11 -10z"/>
<path d="M6306 2458 c3 -5 10 -6 15 -3 13 9 11 12 -6 12 -8 0 -12 -4 -9 -9z"/>
<path d="M1616 2398 c3 -5 10 -6 15 -3 13 9 11 12 -6 12 -8 0 -12 -4 -9 -9z"/>
<path d="M6290 2379 c0 -5 5 -7 10 -4 6 3 10 8 10 11 0 2 -4 4 -10 4 -5 0 -10
-5 -10 -11z"/>
<path d="M6275 2340 c-3 -5 -1 -10 4 -10 6 0 11 5 11 10 0 6 -2 10 -4 10 -3 0
-8 -4 -11 -10z"/>
<path d="M1680 2331 c0 -6 4 -13 10 -16 6 -3 7 1 4 9 -7 18 -14 21 -14 7z"/>
<path d="M6256 2258 c3 -5 10 -6 15 -3 13 9 11 12 -6 12 -8 0 -12 -4 -9 -9z"/>
<path d="M6193 2245 c0 -8 4 -12 9 -9 5 3 6 10 3 15 -9 13 -12 11 -12 -6z"/>
<path d="M1695 2241 c-3 -5 -2 -12 3 -15 5 -3 9 1 9 9 0 17 -3 19 -12 6z"/>
<path d="M1746 2182 c-2 -4 4 -8 14 -8 10 0 16 4 14 8 -3 4 -9 8 -14 8 -5 0
-11 -4 -14 -8z"/>
<path d="M1795 2141 c-3 -5 -2 -12 3 -15 5 -3 9 1 9 9 0 17 -3 19 -12 6z"/>
<path d="M6170 2139 c0 -5 5 -7 10 -4 6 3 10 8 10 11 0 2 -4 4 -10 4 -5 0 -10
-5 -10 -11z"/>
<path d="M1770 2121 c0 -6 4 -13 10 -16 6 -3 7 1 4 9 -7 18 -14 21 -14 7z"/>
<path d="M6094 2118 c-4 -5 -3 -12 0 -15 3 -4 6 -1 6 6 0 7 4 10 9 6 5 -3 12
-2 15 3 3 5 -2 9 -10 9 -8 0 -17 -4 -20 -9z"/>
<path d="M6120 2095 c-7 -8 -16 -13 -19 -10 -4 2 -8 -3 -8 -11 0 -11 6 -9 24
8 13 12 23 23 23 25 0 7 -8 2 -20 -12z"/>
<path d="M1770 2080 c0 -5 5 -10 11 -10 5 0 7 5 4 10 -3 6 -8 10 -11 10 -2 0
-4 -4 -4 -10z"/>
<path d="M1826 2042 c-3 -5 1 -9 9 -9 8 0 15 4 15 9 0 4 -4 8 -9 8 -6 0 -12
-4 -15 -8z"/>
<path d="M6074 2024 c0 -20 11 -25 11 -6 0 4 3 12 7 18 4 6 1 11 -5 11 -7 0
-13 -11 -13 -23z"/>
<path d="M1869 2023 c-13 -16 -12 -17 4 -4 9 7 17 15 17 17 0 8 -8 3 -21 -13z"/>
<path d="M3632 1920 c0 -14 2 -19 5 -12 2 6 2 18 0 25 -3 6 -5 1 -5 -13z"/>
<path d="M3891 1933 c-1 -17 16 -25 25 -12 4 7 3 9 -4 5 -5 -3 -13 0 -15 6 -4
9 -6 10 -6 1z"/>
<path d="M3977 1929 c7 -7 15 -10 18 -7 3 3 -2 9 -12 12 -14 6 -15 5 -6 -5z"/>
<path d="M3187 1923 c-3 -5 6 -9 20 -10 19 -1 22 1 12 8 -17 11 -26 11 -32 2z"/>
<path d="M3315 1919 c-4 -6 -4 -13 -1 -16 3 -4 6 -1 6 6 0 7 5 9 10 6 6 -3 10
-1 10 4 0 14 -17 14 -25 0z"/>
<path d="M3500 1920 c18 -12 30 -13 30 -2 0 4 -10 9 -22 9 -18 2 -20 0 -8 -7z"/>
<path d="M3700 1919 c0 -4 6 -9 13 -12 8 -3 14 0 14 7 0 7 -6 13 -14 13 -7 0
-13 -4 -13 -8z"/>
<path d="M3770 1919 c0 -5 4 -8 9 -4 5 3 12 1 16 -5 3 -5 11 -10 18 -10 6 0 2
7 -9 15 -23 17 -34 19 -34 4z"/>
<path d="M3820 1920 c8 -5 20 -10 25 -10 6 0 3 5 -5 10 -8 5 -19 10 -25 10 -5
0 -3 -5 5 -10z"/>
<path d="M3946 1921 c-3 -5 1 -11 9 -14 9 -4 12 -1 8 9 -6 16 -10 17 -17 5z"/>
<path d="M4024 1918 c9 -5 23 -5 32 0 12 6 7 9 -16 9 -23 0 -28 -3 -16 -9z"/>
<path d="M4122 1917 c10 -8 14 -18 10 -22 -4 -5 -1 -5 6 -1 17 10 15 14 -10
26 -21 10 -21 10 -6 -3z"/>
<path d="M4175 1920 c-3 -6 1 -7 9 -4 18 7 21 14 7 14 -6 0 -13 -4 -16 -10z"/>
<path d="M4235 1920 c-3 -5 -1 -10 4 -10 6 0 11 5 11 10 0 6 -2 10 -4 10 -3 0
-8 -4 -11 -10z"/>
<path d="M4276 1915 c-11 -8 -15 -15 -9 -15 6 0 16 7 23 15 16 19 11 19 -14 0z"/>
<path d="M4318 1923 c7 -3 16 -2 19 1 4 3 -2 6 -13 5 -11 0 -14 -3 -6 -6z"/>
<path d="M4460 1926 c0 -2 7 -7 16 -10 8 -3 12 -2 9 4 -6 10 -25 14 -25 6z"/>
<path d="M4560 1926 c0 -2 7 -7 16 -10 8 -3 12 -2 9 4 -6 10 -25 14 -25 6z"/>
<path d="M4622 1925 c3 -3 16 -8 28 -10 12 -2 20 -1 16 2 -4 4 -16 8 -28 10
-12 2 -19 1 -16 -2z"/>
<path d="M3380 1916 c0 -2 7 -7 16 -10 8 -3 12 -2 9 4 -6 10 -25 14 -25 6z"/>
<path d="M4870 1909 c0 -5 5 -7 10 -4 6 3 10 8 10 11 0 2 -4 4 -10 4 -5 0 -10
-5 -10 -11z"/>
<path d="M2700 1906 c0 -7 40 -14 44 -7 3 4 -6 8 -20 9 -13 1 -24 0 -24 -2z"/>
<path d="M2748 1888 c-10 -10 -14 -18 -9 -18 10 0 36 29 30 34 -2 1 -12 -6
-21 -16z"/>
<path d="M2830 1900 c0 -5 5 -10 11 -10 5 0 7 5 4 10 -3 6 -8 10 -11 10 -2 0
-4 -4 -4 -10z"/>
<path d="M2990 1900 c0 -5 5 -10 10 -10 6 0 10 5 10 10 0 6 -4 10 -10 10 -5 0
-10 -4 -10 -10z"/>
<path d="M3350 1903 c1 -13 30 -48 30 -36 0 7 -5 15 -10 18 -6 4 -8 11 -5 16
4 5 1 9 -4 9 -6 0 -11 -3 -11 -7z"/>
<path d="M3484 1899 c-3 -6 -1 -16 5 -22 9 -9 10 -7 5 7 -6 15 -4 17 6 11 9
-5 11 -4 6 3 -9 15 -13 15 -22 1z"/>
<path d="M3670 1900 c0 -5 5 -10 10 -10 6 0 10 5 10 10 0 6 -4 10 -10 10 -5 0
-10 -4 -10 -10z"/>
<path d="M3876 1895 c-9 -26 -7 -32 5 -12 6 10 9 21 6 23 -2 3 -7 -2 -11 -11z"/>
<path d="M4068 1903 c7 -3 16 -2 19 1 4 3 -2 6 -13 5 -11 0 -14 -3 -6 -6z"/>
<path d="M4190 1901 c0 -6 4 -13 10 -16 6 -3 7 1 4 9 -7 18 -14 21 -14 7z"/>
<path d="M4295 1900 c-6 -9 -4 -11 5 -5 9 6 12 4 8 -6 -4 -11 1 -15 18 -15 13
0 24 4 24 9 0 5 -6 7 -12 4 -7 -2 -18 3 -24 11 -9 12 -13 12 -19 2z"/>
<path d="M4516 1893 c-6 -14 -5 -15 5 -6 7 7 10 15 7 18 -3 3 -9 -2 -12 -12z"/>
<path d="M4995 1900 c-3 -5 -1 -10 4 -10 6 0 11 5 11 10 0 6 -2 10 -4 10 -3 0
-8 -4 -11 -10z"/>
<path d="M5073 1895 c0 -7 6 -11 14 -8 7 3 13 6 13 8 0 2 -6 5 -13 8 -8 3 -14
-1 -14 -8z"/>
<path d="M2395 1890 c-3 -5 -3 -10 1 -10 4 0 -1 -7 -12 -15 -17 -14 -17 -14
10 -3 15 7 23 14 17 16 -6 2 -9 8 -5 13 3 5 3 9 0 9 -3 0 -8 -4 -11 -10z"/>
<path d="M2510 1896 c0 -2 7 -9 15 -16 9 -7 15 -8 15 -2 0 5 -7 12 -15 16 -8
3 -15 4 -15 2z"/>
<path d="M2810 1889 c0 -5 -4 -8 -9 -4 -5 3 -12 1 -15 -4 -4 -5 2 -8 11 -7 15
3 33 26 19 26 -3 0 -6 -5 -6 -11z"/>
<path d="M2868 1893 c6 -2 10 -9 7 -13 -3 -5 0 -12 6 -16 8 -4 9 -3 5 4 -4 7
-1 12 6 12 9 0 9 3 -2 10 -8 5 -19 9 -25 9 -5 0 -4 -3 3 -6z"/>
<path d="M3242 1880 c7 -10 14 -18 15 -16 6 6 -9 36 -18 36 -5 0 -4 -9 3 -20z"/>
<path d="M3588 1889 c-4 -11 1 -15 18 -15 13 0 24 4 24 9 0 5 -6 7 -14 4 -8
-3 -16 -1 -19 6 -2 7 -6 5 -9 -4z"/>
<path d="M3760 1890 c0 -5 -7 -7 -15 -4 -8 4 -15 2 -15 -3 0 -5 11 -9 24 -9
15 0 22 5 19 13 -6 15 -13 17 -13 3z"/>
<path d="M3900 1891 c0 -6 4 -13 10 -16 6 -3 7 1 4 9 -7 18 -14 21 -14 7z"/>
<path d="M4170 1889 c0 -5 -4 -8 -9 -4 -5 3 -12 1 -15 -4 -4 -5 2 -8 11 -7 15
3 33 26 19 26 -3 0 -6 -5 -6 -11z"/>
<path d="M4540 1891 c0 -6 4 -13 10 -16 6 -3 7 1 4 9 -7 18 -14 21 -14 7z"/>
<path d="M4666 1884 c-9 -24 -2 -26 12 -4 7 11 8 20 3 20 -5 0 -12 -7 -15 -16z"/>
<path d="M4906 1884 c-9 -24 -2 -26 12 -4 7 11 8 20 3 20 -5 0 -12 -7 -15 -16z"/>
<path d="M4958 1893 c7 -3 16 -2 19 1 4 3 -2 6 -13 5 -11 0 -14 -3 -6 -6z"/>
<path d="M5023 1890 c2 -8 10 -15 17 -15 7 0 15 7 17 15 4 13 3 13 -6 0 -10
-13 -12 -13 -22 0 -9 13 -10 13 -6 0z"/>
<path d="M5155 1890 c-4 -6 -11 -8 -16 -5 -5 4 -9 1 -9 -4 0 -16 16 -13 30 4
7 8 10 15 7 15 -3 0 -9 -5 -12 -10z"/>
<path d="M5189 1883 c-13 -16 -12 -17 4 -4 16 13 21 21 13 21 -2 0 -10 -8 -17
-17z"/>
<path d="M5422 1892 c2 -8 7 -13 12 -12 5 1 13 -4 18 -12 8 -11 9 -11 6 0 -2
8 -7 13 -12 12 -5 -1 -13 4 -18 12 -8 11 -9 11 -6 0z"/>
<path d="M2306 1879 c3 -5 9 -7 14 -4 4 3 11 0 13 -5 3 -6 4 -5 3 1 -1 7 -10
13 -19 15 -9 1 -15 -2 -11 -7z"/>
<path d="M2360 1875 c-7 -9 -11 -17 -9 -20 3 -2 10 5 17 15 14 24 10 26 -8 5z"/>
<path d="M2580 1879 c0 -5 5 -7 10 -4 6 3 10 8 10 11 0 2 -4 4 -10 4 -5 0 -10
-5 -10 -11z"/>
<path d="M2685 1880 c-3 -6 1 -7 9 -4 18 7 21 14 7 14 -6 0 -13 -4 -16 -10z"/>
<path d="M2960 1880 c-8 -5 -10 -10 -5 -10 6 0 3 -5 -5 -10 -12 -7 -10 -9 7
-8 14 2 19 7 15 17 -4 10 -1 12 8 6 9 -5 11 -4 6 3 -9 14 -7 14 -26 2z"/>
<path d="M3015 1879 c-6 -8 -4 -10 5 -4 10 6 12 4 6 -11 -6 -15 -5 -17 5 -6 9
9 10 15 2 23 -8 8 -13 7 -18 -2z"/>
<path d="M3080 1876 c0 -8 4 -17 9 -20 5 -4 7 3 4 14 -6 23 -13 26 -13 6z"/>
<path d="M3120 1886 c0 -2 7 -7 16 -10 8 -3 12 -2 9 4 -6 10 -25 14 -25 6z"/>
<path d="M3173 1878 c-4 -7 -1 -8 7 -3 9 6 12 4 8 -7 -4 -8 0 -15 8 -15 7 0
10 5 7 10 -4 6 1 8 11 4 9 -4 15 -3 12 2 -9 14 -45 20 -53 9z"/>
<path d="M3275 1880 c-2 -3 5 -7 16 -7 10 -1 19 2 19 6 0 9 -29 10 -35 1z"/>
<path d="M3410 1879 c0 -7 3 -10 6 -6 3 3 18 1 33 -4 15 -6 22 -6 16 -1 -18
17 -55 24 -55 11z"/>
<path d="M3796 1873 c-6 -14 -5 -15 5 -6 7 7 10 15 7 18 -3 3 -9 -2 -12 -12z"/>
<path d="M3990 1879 c0 -5 5 -7 10 -4 6 3 10 8 10 11 0 2 -4 4 -10 4 -5 0 -10
-5 -10 -11z"/>
<path d="M4042 1878 c-15 -15 -15 -28 -1 -28 5 0 8 4 4 9 -3 6 3 14 12 20 10
6 13 11 8 11 -6 0 -16 -5 -23 -12z"/>
<path d="M4085 1880 c-3 -6 1 -7 9 -4 18 7 21 14 7 14 -6 0 -13 -4 -16 -10z"/>
<path d="M4251 1887 c2 -1 13 -9 24 -17 19 -14 19 -14 6 3 -7 9 -18 17 -24 17
-6 0 -8 -1 -6 -3z"/>
<path d="M4384 1879 c-5 -8 -3 -9 6 -4 7 4 16 2 22 -6 8 -12 9 -12 6 0 -6 20
-24 25 -34 10z"/>
<path d="M4450 1878 c0 -6 3 -8 7 -5 3 4 13 1 22 -6 14 -11 14 -10 2 6 -15 20
-31 22 -31 5z"/>
<path d="M4610 1880 c0 -5 9 -8 20 -7 21 1 18 10 -5 13 -8 1 -15 -2 -15 -6z"/>
<path d="M4712 1879 c-12 -5 -22 -11 -22 -13 0 -3 11 -1 24 4 13 5 26 6 29 4
3 -3 7 -1 11 4 6 11 -14 11 -42 1z"/>
<path d="M4786 1882 c-2 -4 4 -8 14 -8 10 0 16 4 14 8 -3 4 -9 8 -14 8 -5 0
-11 -4 -14 -8z"/>
<path d="M4844 1883 c4 -4 16 -8 28 -10 28 -4 18 6 -12 12 -12 2 -20 1 -16 -2z"/>
<path d="M5220 1879 c0 -5 5 -7 10 -4 6 3 10 8 10 11 0 2 -4 4 -10 4 -5 0 -10
-5 -10 -11z"/>
<path d="M5366 1878 c3 -4 9 -8 15 -8 5 0 9 4 9 8 0 5 -7 9 -15 9 -8 0 -12 -4
-9 -9z"/>
<path d="M5513 1884 c4 -4 -1 -13 -11 -21 -15 -12 -14 -13 8 -2 33 16 33 16
13 23 -9 4 -14 4 -10 0z"/>
<path d="M5610 1878 c0 -4 4 -8 9 -8 6 0 12 4 15 8 3 5 -1 9 -9 9 -8 0 -15 -4
-15 -9z"/>
<path d="M2070 1869 c0 -5 -6 -7 -12 -3 -7 4 -10 3 -5 -1 4 -5 18 -10 30 -11
12 -2 16 0 9 2 -6 3 -10 10 -6 15 3 5 0 9 -5 9 -6 0 -11 -5 -11 -11z"/>
<path d="M2230 1871 c0 -7 -5 -9 -12 -5 -7 4 -8 3 -4 -5 4 -6 12 -8 18 -5 7 5
9 1 5 -9 -3 -9 -2 -19 3 -22 4 -3 7 6 5 20 -2 27 -15 48 -15 26z"/>
<path d="M2475 1869 c-4 -6 -5 -12 -2 -15 2 -3 7 2 10 11 7 17 1 20 -8 4z"/>
<path d="M3320 1876 c0 -2 7 -7 16 -10 8 -3 12 -2 9 4 -6 10 -25 14 -25 6z"/>
<path d="M4575 1870 c-3 -6 1 -7 9 -4 18 7 21 14 7 14 -6 0 -13 -4 -16 -10z"/>
<path d="M4936 1871 c-4 -5 3 -7 14 -4 23 6 26 13 6 13 -8 0 -17 -4 -20 -9z"/>
<path d="M5275 1871 c-3 -5 0 -13 6 -17 8 -5 9 -3 4 6 -6 10 -4 12 9 7 10 -4
15 -3 11 3 -8 13 -22 13 -30 1z"/>
<path d="M5475 1869 c-4 -6 -5 -12 -2 -15 2 -3 7 2 10 11 7 17 1 20 -8 4z"/>
<path d="M5713 1865 c0 -7 6 -11 14 -8 7 3 13 6 13 8 0 2 -6 5 -13 8 -8 3 -14
-1 -14 -8z"/>
<path d="M5875 1869 c-4 -6 -5 -12 -2 -15 2 -3 7 2 10 11 7 17 1 20 -8 4z"/>
<path d="M2550 1860 c0 -5 5 -10 10 -10 6 0 10 5 10 10 0 6 -4 10 -10 10 -5 0
-10 -4 -10 -10z"/>
<path d="M2715 1861 c6 -11 4 -13 -8 -8 -10 4 -14 2 -11 -7 6 -17 32 -16 30 0
-1 8 -6 17 -11 21 -4 5 -5 2 0 -6z"/>
<path d="M2815 1861 c-9 -15 15 -25 28 -12 9 9 7 10 -7 5 -13 -5 -17 -4 -12 4
4 7 5 12 2 12 -3 0 -7 -4 -11 -9z"/>
<path d="M3836 1858 c3 -5 10 -6 15 -3 13 9 11 12 -6 12 -8 0 -12 -4 -9 -9z"/>
<path d="M3959 1853 c-13 -16 -12 -17 4 -4 16 13 21 21 13 21 -2 0 -10 -8 -17
-17z"/>
<path d="M4110 1851 c4 -9 9 -20 10 -26 1 -5 2 -10 3 -10 1 0 1 2 -1 4 -1 2 6
14 15 25 17 20 17 20 -1 6 -18 -13 -19 -13 -14 1 4 9 1 16 -7 16 -10 0 -11 -5
-5 -16z"/>
<path d="M4228 1863 c7 -3 16 -2 19 1 4 3 -2 6 -13 5 -11 0 -14 -3 -6 -6z"/>
<path d="M4359 1868 c-5 -18 -6 -38 -1 -34 7 8 12 36 6 36 -2 0 -4 -1 -5 -2z"/>
<path d="M4755 1861 c-6 -10 11 -24 32 -27 6 -1 9 5 6 13 -5 12 -7 12 -14 1
-8 -12 -13 -4 -10 15 1 10 -7 9 -14 -2z"/>
<path d="M4833 1855 c0 -8 4 -12 9 -9 5 3 6 10 3 15 -9 13 -12 11 -12 -6z"/>
<path d="M4986 1857 c3 -10 9 -15 12 -12 3 3 0 11 -7 18 -10 9 -11 8 -5 -6z"/>
<path d="M5083 1853 c-3 -10 -8 -21 -10 -25 -2 -4 2 -10 9 -14 7 -4 10 -4 6 0
-4 5 -3 19 2 32 5 13 7 24 4 24 -2 0 -7 -8 -11 -17z"/>
<path d="M5339 1868 c-6 -22 -5 -39 3 -45 7 -4 8 -1 3 7 -6 10 -3 12 11 7 18
-7 18 -6 2 6 -10 8 -15 17 -11 20 3 4 3 7 0 7 -4 0 -7 -1 -8 -2z"/>
<path d="M5416 1858 c5 -7 2 -9 -9 -5 -11 4 -14 2 -10 -9 4 -11 9 -12 19 -3
12 10 11 29 -2 29 -3 0 -2 -5 2 -12z"/>
<path d="M5654 1862 c3 -5 1 -12 -6 -14 -8 -3 -9 -6 -1 -11 6 -4 13 0 17 8 3
8 0 17 -6 21 -6 4 -8 3 -4 -4z"/>
<path d="M5758 1863 c7 -3 16 -2 19 1 4 3 -2 6 -13 5 -11 0 -14 -3 -6 -6z"/>
<path d="M1957 1853 c-10 -10 -8 -23 4 -23 5 0 8 4 5 9 -4 5 0 12 6 14 7 3 8
6 2 6 -6 1 -14 -2 -17 -6z"/>
<path d="M1990 1856 c0 -2 8 -10 18 -17 15 -13 16 -12 3 4 -13 16 -21 21 -21
13z"/>
<path d="M2028 1852 c8 -5 13 -13 12 -18 -1 -5 4 -10 12 -12 11 -3 11 -2 0 6
-8 5 -13 13 -12 18 1 5 -4 10 -12 12 -11 3 -11 2 0 -6z"/>
<path d="M2119 1858 c-6 -21 -5 -37 2 -32 5 3 7 9 4 14 -3 4 1 11 7 13 10 4
10 6 1 6 -7 1 -13 0 -14 -1z"/>
<path d="M2180 1856 c0 -2 7 -7 16 -10 8 -3 12 -2 9 4 -6 10 -25 14 -25 6z"/>
<path d="M2301 1844 c0 -11 3 -14 6 -6 3 7 2 16 -1 19 -3 4 -6 -2 -5 -13z"/>
<path d="M2781 1844 c0 -11 3 -14 6 -6 3 7 2 16 -1 19 -3 4 -6 -2 -5 -13z"/>
<path d="M2915 1850 c-4 -6 -10 -8 -15 -5 -5 3 -11 1 -14 -4 -8 -13 22 -7 36
7 7 7 9 12 6 12 -4 0 -10 -5 -13 -10z"/>
<path d="M3490 1856 c0 -2 7 -9 15 -16 9 -7 15 -8 15 -2 0 5 -7 12 -15 16 -8
3 -15 4 -15 2z"/>
<path d="M3535 1849 c-4 -6 -5 -12 -2 -15 2 -3 7 2 10 11 7 17 1 20 -8 4z"/>
<path d="M3634 1840 c0 -13 4 -16 10 -10 7 7 7 13 0 20 -6 6 -10 3 -10 -10z"/>
<path d="M3719 1858 c-6 -20 -6 -39 0 -42 4 -3 7 6 7 20 0 20 -4 32 -7 22z"/>
<path d="M3813 1847 c0 -7 9 -14 20 -14 11 -1 18 -1 16 0 -2 2 -11 8 -20 15
-12 9 -16 9 -16 -1z"/>
<path d="M4810 1846 c0 -8 4 -17 9 -20 5 -4 7 3 4 14 -6 23 -13 26 -13 6z"/>
<path d="M5592 1853 c-6 -2 -10 -9 -6 -14 8 -14 21 -11 21 6 0 8 -1 15 -1 14
-1 0 -7 -3 -14 -6z"/>
<path d="M2393 1837 c0 -7 9 -13 19 -13 10 0 18 1 18 3 0 1 -8 7 -18 12 -13 7
-19 6 -19 -2z"/>
<path d="M2451 1834 c0 -11 3 -14 6 -6 3 7 2 16 -1 19 -3 4 -6 -2 -5 -13z"/>
<path d="M2493 1833 c0 -9 4 -10 14 -2 7 6 13 12 13 14 0 1 -6 2 -13 2 -8 0
-14 -6 -14 -14z"/>
<path d="M2600 1845 c0 -2 6 -8 13 -14 10 -8 14 -7 14 2 0 8 -6 14 -14 14 -7
0 -13 -1 -13 -2z"/>
<path d="M2751 1827 c-13 -21 -12 -21 5 -5 10 10 16 20 13 22 -3 3 -11 -5 -18
-17z"/>
<path d="M2990 1839 c0 -5 5 -7 10 -4 6 3 10 8 10 11 0 2 -4 4 -10 4 -5 0 -10
-5 -10 -11z"/>
<path d="M3036 1833 c-6 -14 -5 -15 5 -6 7 7 10 15 7 18 -3 3 -9 -2 -12 -12z"/>
<path d="M3150 1846 c0 -2 7 -7 16 -10 8 -3 12 -2 9 4 -6 10 -25 14 -25 6z"/>
<path d="M3237 1831 c-10 -14 -10 -14 4 -4 9 7 18 10 21 7 3 -3 8 -1 12 4 9
16 -24 9 -37 -7z"/>
<path d="M3336 1842 c-3 -5 1 -9 9 -9 8 0 12 4 9 9 -3 4 -7 8 -9 8 -2 0 -6 -4
-9 -8z"/>
<path d="M3370 1841 c0 -6 4 -13 10 -16 6 -3 7 1 4 9 -7 18 -14 21 -14 7z"/>
<path d="M3473 1838 c1 -7 -4 -12 -11 -10 -8 1 -11 -2 -7 -8 5 -8 11 -8 21 1
7 6 11 15 8 20 -8 13 -14 11 -11 -3z"/>
<path d="M3779 1833 c-13 -16 -12 -17 4 -4 16 13 21 21 13 21 -2 0 -10 -8 -17
-17z"/>
<path d="M3987 1839 c7 -7 15 -10 18 -7 3 3 -2 9 -12 12 -14 6 -15 5 -6 -5z"/>
<path d="M4233 1831 c0 -11 5 -18 9 -15 4 3 5 11 1 19 -7 21 -12 19 -10 -4z"/>
<path d="M4489 1837 c6 -8 7 -18 3 -22 -4 -5 -1 -5 6 -1 10 6 10 11 1 22 -6 8
-14 14 -16 14 -3 0 0 -6 6 -13z"/>
<path d="M4908 1832 c4 -11 7 -12 10 -4 3 10 7 10 20 0 14 -10 15 -10 5 2 -18
20 -43 22 -35 2z"/>
<path d="M5267 1839 c7 -7 15 -10 18 -7 3 3 -2 9 -12 12 -14 6 -15 5 -6 -5z"/>
<path d="M5504 1838 c-5 -7 -3 -8 6 -3 9 6 12 4 8 -7 -4 -8 0 -15 7 -15 10 0
11 5 4 19 -11 21 -15 22 -25 6z"/>
<path d="M5671 1832 c-7 -14 -6 -19 4 -19 7 0 11 7 7 15 -4 11 -1 13 8 7 9 -5
11 -4 6 3 -10 16 -14 15 -25 -6z"/>
<path d="M5719 1833 c-13 -17 -13 -17 6 -3 11 8 22 16 24 17 2 2 0 3 -6 3 -6
0 -17 -8 -24 -17z"/>
<path d="M5770 1846 c0 -2 7 -7 16 -10 8 -3 12 -2 9 4 -6 10 -25 14 -25 6z"/>
<path d="M5815 1839 c-4 -6 -4 -13 -1 -16 3 -4 6 -1 6 6 0 7 5 9 12 5 7 -4 8
-3 4 4 -9 15 -13 15 -21 1z"/>
<path d="M5886 1841 c-3 -5 1 -11 9 -14 9 -4 12 -1 8 9 -6 16 -10 17 -17 5z"/>
<path d="M5991 1827 c-13 -21 -12 -21 5 -5 10 10 16 20 13 22 -3 3 -11 -5 -18
-17z"/>
<path d="M2553 1825 c0 -8 4 -15 9 -15 4 0 8 4 8 9 0 6 -4 12 -8 15 -5 3 -9
-1 -9 -9z"/>
<path d="M4173 1825 c0 -8 4 -12 9 -9 5 3 6 10 3 15 -9 13 -12 11 -12 -6z"/>
<path d="M4595 1831 c-3 -5 -2 -12 3 -15 5 -3 9 1 9 9 0 17 -3 19 -12 6z"/>
<path d="M4870 1836 c0 -2 8 -10 18 -17 15 -13 16 -12 3 4 -13 16 -21 21 -21
13z"/>
<path d="M5109 1823 c-13 -16 -12 -17 4 -4 16 13 21 21 13 21 -2 0 -10 -8 -17
-17z"/>
<path d="M1806 1818 c3 -5 10 -6 15 -3 13 9 11 12 -6 12 -8 0 -12 -4 -9 -9z"/>
<path d="M1987 1813 c4 -10 2 -14 -4 -10 -5 3 -10 -1 -10 -9 0 -10 4 -11 10
-5 7 7 17 7 31 0 19 -9 19 -9 4 4 -10 8 -15 16 -12 19 2 3 -2 8 -10 11 -11 4
-13 1 -9 -10z"/>
<path d="M2078 1823 c7 -3 16 -2 19 1 4 3 -2 6 -13 5 -11 0 -14 -3 -6 -6z"/>
<path d="M2188 1808 c5 -20 23 -25 20 -5 -2 6 4 11 12 9 8 -2 12 0 7 4 -4 4
-16 8 -26 9 -13 1 -17 -4 -13 -17z"/>
<path d="M3935 1820 c3 -5 8 -10 11 -10 2 0 4 5 4 10 0 6 -5 10 -11 10 -5 0
-7 -4 -4 -10z"/>
<path d="M4636 1822 c-2 -4 -1 -14 4 -22 7 -11 9 -9 7 8 -1 24 -3 26 -11 14z"/>
<path d="M5916 1815 c-9 -26 -7 -32 5 -12 6 10 9 21 6 23 -2 3 -7 -2 -11 -11z"/>
<path d="M6080 1820 c-12 -7 -10 -9 7 -7 12 0 19 5 17 9 -6 10 -6 10 -24 -2z"/>
<path d="M1930 1816 c0 -2 8 -10 18 -17 15 -13 16 -12 3 4 -13 16 -21 21 -21
13z"/>
<path d="M2285 1811 c-11 -5 -23 -7 -26 -5 -13 8 -33 -26 -22 -37 8 -8 11 -6
10 7 -2 15 5 19 29 19 18 0 31 5 31 12 0 7 -1 13 -1 12 -1 0 -10 -4 -21 -8z"/>
<path d="M2333 1806 c0 -15 22 -15 34 0 4 5 4 6 -1 2 -5 -4 -14 -3 -21 2 -8 7
-12 5 -12 -4z"/>
<path d="M2644 1798 l-19 -23 23 19 c21 18 27 26 19 26 -2 0 -12 -10 -23 -22z"/>
<path d="M2895 1809 c-4 -6 -5 -12 -2 -15 2 -3 7 2 10 11 7 17 1 20 -8 4z"/>
<path d="M2936 1807 c3 -10 9 -15 12 -12 3 3 0 11 -7 18 -10 9 -11 8 -5 -6z"/>
<path d="M3873 1805 c0 -8 4 -12 9 -9 5 3 6 10 3 15 -9 13 -12 11 -12 -6z"/>
<path d="M5129 1803 c-13 -16 -12 -17 4 -4 9 7 17 15 17 17 0 8 -8 3 -21 -13z"/>
<path d="M5364 1798 l-19 -23 23 19 c21 18 27 26 19 26 -2 0 -12 -10 -23 -22z"/>
<path d="M5449 1803 c-13 -16 -12 -17 4 -4 16 13 21 21 13 21 -2 0 -10 -8 -17
-17z"/>
<path d="M5613 1807 c0 -7 11 -13 23 -13 20 0 25 11 6 11 -4 0 -12 3 -18 7 -6
4 -11 1 -11 -5z"/>
<path d="M5745 1805 c11 -9 19 -19 18 -23 -1 -4 1 -8 3 -9 2 -2 2 0 -1 4 -3 3
1 13 7 22 7 9 9 13 4 9 -5 -4 -18 -3 -30 3 -21 10 -21 10 -1 -6z"/>
<path d="M5805 1800 c10 -11 20 -20 23 -20 3 0 -3 9 -13 20 -10 11 -20 20 -23
20 -3 0 3 -9 13 -20z"/>
<path d="M2473 1793 c0 -6 5 -9 11 -5 6 4 14 7 18 7 19 0 14 11 -6 11 -12 0
-23 -6 -23 -13z"/>
<path d="M2676 1793 c-6 -14 -5 -15 5 -6 7 7 10 15 7 18 -3 3 -9 -2 -12 -12z"/>
<path d="M3095 1800 c3 -5 8 -10 11 -10 2 0 4 5 4 10 0 6 -5 10 -11 10 -5 0
-7 -4 -4 -10z"/>
<path d="M3170 1799 c0 -5 5 -7 10 -4 6 3 10 8 10 11 0 2 -4 4 -10 4 -5 0 -10
-5 -10 -11z"/>
<path d="M4676 1798 c3 -5 10 -6 15 -3 13 9 11 12 -6 12 -8 0 -12 -4 -9 -9z"/>
<path d="M5326 1798 c3 -5 10 -6 15 -3 13 9 11 12 -6 12 -8 0 -12 -4 -9 -9z"/>
<path d="M5475 1801 c-3 -5 -2 -12 3 -15 5 -3 9 1 9 9 0 17 -3 19 -12 6z"/>
<path d="M5713 1793 c0 -11 7 -20 14 -20 10 0 10 4 1 16 -7 9 -13 18 -15 20
-1 2 -1 -5 0 -16z"/>
<path d="M5846 1802 c-3 -5 1 -9 9 -9 8 0 15 4 15 9 0 4 -4 8 -9 8 -6 0 -12
-4 -15 -8z"/>
<path d="M2156 1787 c3 -10 9 -15 12 -12 3 3 0 11 -7 18 -10 9 -11 8 -5 -6z"/>
<path d="M4916 1787 c3 -10 9 -15 12 -12 3 3 0 11 -7 18 -10 9 -11 8 -5 -6z"/>
<path d="M5093 1785 c0 -8 4 -12 9 -9 5 3 6 10 3 15 -9 13 -12 11 -12 -6z"/>
<path d="M5176 1787 c3 -10 9 -15 12 -12 3 3 0 11 -7 18 -10 9 -11 8 -5 -6z"/>
<path d="M1910 1786 c0 -2 7 -7 16 -10 8 -3 12 -2 9 4 -6 10 -25 14 -25 6z"/>
<path d="M2060 1786 c0 -2 8 -10 18 -17 15 -13 16 -12 3 4 -13 16 -21 21 -21
13z"/>
<path d="M2815 1780 c3 -5 8 -10 11 -10 2 0 4 5 4 10 0 6 -5 10 -11 10 -5 0
-7 -4 -4 -10z"/>
<path d="M4970 1786 c0 -2 7 -7 16 -10 8 -3 12 -2 9 4 -6 10 -25 14 -25 6z"/>
<path d="M6065 1780 c-3 -6 1 -7 9 -4 18 7 21 14 7 14 -6 0 -13 -4 -16 -10z"/>
<path d="M6175 1780 c-3 -5 -1 -10 4 -10 6 0 11 5 11 10 0 6 -2 10 -4 10 -3 0
-8 -4 -11 -10z"/>
<path d="M6206 1778 c3 -5 10 -6 15 -3 13 9 11 12 -6 12 -8 0 -12 -4 -9 -9z"/>
<path d="M5979 1778 c-6 -20 -6 -39 0 -42 4 -3 7 6 7 20 0 20 -4 32 -7 22z"/>
<path d="M1650 1759 c0 -5 5 -7 10 -4 6 3 10 8 10 11 0 2 -4 4 -10 4 -5 0 -10
-5 -10 -11z"/>
<path d="M5430 1766 c0 -2 7 -7 16 -10 8 -3 12 -2 9 4 -6 10 -25 14 -25 6z"/>
<path d="M6030 1760 c0 -5 5 -10 11 -10 5 0 7 5 4 10 -3 6 -8 10 -11 10 -2 0
-4 -4 -4 -10z"/>
<path d="M1935 1740 c3 -5 8 -10 11 -10 2 0 4 5 4 10 0 6 -5 10 -11 10 -5 0
-7 -4 -4 -10z"/>
<path d="M1965 1740 c-3 -6 1 -7 9 -4 18 7 21 14 7 14 -6 0 -13 -4 -16 -10z"/>
<path d="M2115 1740 c3 -5 8 -10 11 -10 2 0 4 5 4 10 0 6 -5 10 -11 10 -5 0
-7 -4 -4 -10z"/>
<path d="M2190 1740 c0 -5 5 -10 11 -10 5 0 7 5 4 10 -3 6 -8 10 -11 10 -2 0
-4 -4 -4 -10z"/>
<path d="M5815 1740 c-3 -5 -1 -10 4 -10 6 0 11 5 11 10 0 6 -2 10 -4 10 -3 0
-8 -4 -11 -10z"/>
<path d="M5935 1740 c3 -5 8 -10 11 -10 2 0 4 5 4 10 0 6 -5 10 -11 10 -5 0
-7 -4 -4 -10z"/>
<path d="M6090 1740 c0 -5 5 -10 11 -10 5 0 7 5 4 10 -3 6 -8 10 -11 10 -2 0
-4 -4 -4 -10z"/>
<path d="M6135 1740 c-3 -5 -1 -10 4 -10 6 0 11 5 11 10 0 6 -2 10 -4 10 -3 0
-8 -4 -11 -10z"/>
<path d="M6170 1739 c0 -5 5 -7 10 -4 6 3 10 8 10 11 0 2 -4 4 -10 4 -5 0 -10
-5 -10 -11z"/>
<path d="M6210 1739 c0 -5 5 -7 10 -4 6 3 10 8 10 11 0 2 -4 4 -10 4 -5 0 -10
-5 -10 -11z"/>
<path d="M6290 1739 c0 -5 5 -7 10 -4 6 3 10 8 10 11 0 2 -4 4 -10 4 -5 0 -10
-5 -10 -11z"/>
<path d="M1490 1719 c0 -5 5 -7 10 -4 6 3 10 8 10 11 0 2 -4 4 -10 4 -5 0 -10
-5 -10 -11z"/>
</g>
</svg>
